<?xml version="1.0" encoding="utf-8"?>
<!-- Generator: Adobe Illustrator 15.1.0, SVG Export Plug-In . SVG Version: 6.00 Build 0)  -->
<!DOCTYPE svg PUBLIC "-//W3C//DTD SVG 1.1//EN" "http://www.w3.org/Graphics/SVG/1.1/DTD/svg11.dtd">
<svg version="1.1" id="Layer_1" xmlns="http://www.w3.org/2000/svg" xmlns:xlink="http://www.w3.org/1999/xlink" x="0px" y="0px"
	 width="38.185px" height="208.996px" viewBox="0 0 38.185 208.996" enable-background="new 0 0 38.185 208.996"
	 xml:space="preserve">
<g>
	<path fill="#8EC9E8" d="M12,0.979L6.005,6.974L0,0.979L0.979,0l5.026,5.026L11.021,0L12,0.979z"/>
</g>
<g>
	<path fill="#FFFFFF" d="M0,16.995L5.995,11L12,16.995l-0.979,0.979l-5.026-5.026l-5.015,5.026L0,16.995z"/>
</g>
<g>
	<path fill="#FFFFFF" d="M20,44H0v-1.333h20V44z M9.333,22.708h1.333v11.719l4.198-4.188l0.938,0.938L10,36.979l-5.802-5.802
		l0.938-0.938l4.198,4.188V22.708z"/>
</g>
<g>
	<path fill="#FFFFFF" d="M10,48c1.354,0,2.649,0.264,3.885,0.792c1.243,0.528,2.309,1.236,3.198,2.125
		c0.889,0.889,1.597,1.955,2.125,3.198C19.736,55.351,20,56.646,20,58s-0.264,2.649-0.792,3.885
		c-0.528,1.243-1.236,2.309-2.125,3.198c-0.889,0.889-1.955,1.597-3.198,2.125C12.649,67.736,11.354,68,10,68
		s-2.649-0.264-3.885-0.792c-1.244-0.528-2.31-1.236-3.198-2.125c-0.889-0.889-1.597-1.955-2.125-3.198C0.264,60.649,0,59.354,0,58
		s0.264-2.649,0.792-3.885c0.528-1.243,1.236-2.309,2.125-3.198c0.889-0.889,1.955-1.597,3.198-2.125C7.351,48.264,8.646,48,10,48z
		 M10,49.333c-1.174,0-2.295,0.229-3.365,0.688c-1.062,0.458-1.983,1.077-2.76,1.854c-0.778,0.778-1.396,1.698-1.854,2.76
		C1.562,55.705,1.333,56.827,1.333,58c0,1.174,0.229,2.295,0.688,3.365c0.458,1.062,1.076,1.982,1.854,2.76
		c0.777,0.777,1.698,1.396,2.76,1.854c1.069,0.458,2.191,0.688,3.365,0.688c1.173,0,2.295-0.229,3.365-0.688
		c1.062-0.458,1.982-1.077,2.76-1.854c0.777-0.778,1.396-1.698,1.854-2.76c0.458-1.069,0.688-2.191,0.688-3.365
		c0-1.173-0.229-2.295-0.688-3.365c-0.458-1.062-1.077-1.982-1.854-2.76c-0.778-0.777-1.698-1.396-2.76-1.854
		C12.295,49.562,11.173,49.333,10,49.333z M10.667,57.333h4v1.333h-4v4H9.333v-4h-4v-1.333h4v-4h1.333V57.333z"/>
</g>
<g>
	<path fill="#FFFFFF" d="M10.989,72c1.797,0,3.484,0.365,5.06,1.096c1.504,0.695,2.721,1.433,3.652,2.213
		c0.938,0.788,1.618,1.418,2.041,1.891L22,77.5c-0.967,1.182-2.277,2.292-3.932,3.33C15.762,82.277,13.396,83,10.968,83
		c-1.805,0-3.474-0.354-5.006-1.063c-1.533-0.709-2.768-1.461-3.706-2.256c-0.938-0.795-1.604-1.421-1.998-1.88L0,77.5
		c0.974-1.203,2.27-2.313,3.889-3.33C6.18,72.724,8.547,72,10.989,72z M11,73.375c-2.277,0-4.455,0.681-6.531,2.041
		c-0.96,0.63-1.819,1.325-2.578,2.084c1.962,1.962,4.161,3.237,6.596,3.824c0.816,0.201,1.644,0.301,2.481,0.301
		c-1.139,0-2.105-0.408-2.9-1.225s-1.192-1.79-1.192-2.922c0-1.146,0.397-2.116,1.192-2.911S9.84,73.375,11,73.375z M12.923,75.545
		c-0.552-0.53-1.207-0.795-1.966-0.795c-0.759,0-1.396,0.265-1.912,0.795c-0.53,0.53-0.795,1.182-0.795,1.955
		s0.265,1.425,0.795,1.955c0.53,0.53,1.167,0.795,1.912,0.795c0.759,0,1.414-0.265,1.966-0.795c0.551-0.53,0.827-1.182,0.827-1.955
		S13.474,76.075,12.923,75.545z M11,73.375c1.117,0,2.084,0.401,2.9,1.203c0.816,0.802,1.225,1.769,1.225,2.9
		c0,1.132-0.408,2.105-1.225,2.922s-1.783,1.225-2.9,1.225c2.227,0,4.397-0.684,6.51-2.052c0.995-0.645,1.862-1.335,2.6-2.073
		c-1.962-1.948-4.183-3.223-6.66-3.824C12.633,73.476,11.816,73.375,11,73.375z"/>
</g>
<g>
	<path fill="#CC3333" d="M21,6.25L16,0h10L21,6.25z M18.598,1.25L21,4.248l2.402-2.998H18.598z"/>
</g>
<g>
	<path fill="#3399CC" d="M22,14.5L16.375,19v-9L22,14.5z M17.5,16.662l2.698-2.162L17.5,12.338V16.662z"/>
</g>
<g>
	<path fill="#006699" d="M38.185,148.002c0,10.51-8.531,18.998-18.998,18.998c-10.51,0-18.998-8.487-18.998-18.998
		c0-10.466,8.487-18.998,18.998-18.998C29.654,129.005,38.185,137.536,38.185,148.002z M20.771,141.45
		c0-1.319,0.264-2.155,1.935-2.155H25.3l0.22-4.486c0,0-1.319-0.264-3.606-0.264c-4.662,0-6.685,2.814-6.685,5.98
		c0,2.067,0,4.31,0,4.31h-3.166v4.75h3.166v11.873h5.541v-11.873h4.442l0.308-4.706h-4.75V141.45z"/>
</g>
<g>
	<path fill="#006699" d="M38.185,105.998c0,10.51-8.487,18.998-18.998,18.998S0.19,116.508,0.19,105.998S8.677,87,19.188,87
		S38.185,95.487,38.185,105.998z M33.436,99.049c-0.967,0.396-2.023,0.704-3.122,0.835c1.143-0.66,1.935-1.715,2.331-2.99
		c-1.055,0.616-2.155,1.056-3.386,1.319c-0.967-1.056-2.375-1.715-3.914-1.715c-2.99,0-5.365,2.418-5.365,5.409
		c0,0.396,0.044,0.835,0.132,1.231c-4.485-0.22-8.487-2.375-11.17-5.673c-0.439,0.835-0.704,1.759-0.704,2.727
		c0,1.891,0.924,3.518,2.375,4.485c-0.879,0-1.715-0.264-2.419-0.66v0.044c0,2.639,1.847,4.793,4.31,5.321
		c-0.44,0.132-0.924,0.176-1.407,0.176c-0.352,0-0.704-0.044-1.012-0.088c0.66,2.155,2.683,3.606,5.013,3.65
		c-1.847,1.451-4.134,2.463-6.684,2.463c-0.44,0-0.88-0.044-1.275-0.088c2.375,1.54,5.233,2.375,8.268,2.375
		c9.938,0,15.347-8.224,15.347-15.348c0-0.22,0-0.484,0-0.704C31.809,101.072,32.688,100.105,33.436,99.049z"/>
</g>
<g>
	<path fill="#006699" d="M37.995,189.998c0,10.51-8.487,18.998-18.998,18.998S0,200.508,0,189.998S8.487,171,18.998,171
		S37.995,179.488,37.995,189.998z M14.248,180.895c-0.044-1.582-1.231-2.77-3.166-2.77c-1.891,0-3.167,1.188-3.167,2.77
		c0,1.539,1.231,2.771,3.123,2.771h0.044C13.017,183.666,14.248,182.434,14.248,180.895z M13.457,186.04h-4.75v13.456h4.75V186.04z
		 M30.871,192.373c0-4.354-2.155-7.125-5.541-7.125c-1.935,0-3.342,1.145-3.958,2.859l-0.176-2.067h-4.706
		c0.044,0.528,0.132,3.167,0.132,3.167v10.289h4.749v-7.123c0-1.936,0.88-3.166,2.331-3.166s2.418,0.747,2.418,3.166v7.123h4.75
		V192.373z"/>
</g>
</svg>
