<?xml version="1.0" encoding="utf-8"?>
<!-- Generator: Adobe Illustrator 15.1.0, SVG Export Plug-In . SVG Version: 6.00 Build 0)  -->
<!DOCTYPE svg PUBLIC "-//W3C//DTD SVG 1.1//EN" "http://www.w3.org/Graphics/SVG/1.1/DTD/svg11.dtd">
<svg version="1.1" id="Layer_1" xmlns="http://www.w3.org/2000/svg" xmlns:xlink="http://www.w3.org/1999/xlink" x="0px" y="0px"
	 width="38.293px" height="254.777px" viewBox="0 0 38.293 254.777" enable-background="new 0 0 38.293 254.777"
	 xml:space="preserve">
<g>
	<path fill="#8EC9E8" d="M12.108,0.979L6.114,6.974L0.108,0.979L1.087,0l5.026,5.026L11.129,0L12.108,0.979z"/>
</g>
<g>
	<path fill="#FFFFFF" d="M0.108,16.995L6.103,11l6.005,5.995l-0.979,0.979l-5.026-5.026l-5.015,5.026L0.108,16.995z"/>
</g>
<g>
	<path fill="#FFFFFF" d="M20.108,44h-20v-1.333h20V44z M9.442,22.708h1.333v11.719l4.198-4.188l0.938,0.938l-5.802,5.802
		l-5.802-5.802l0.938-0.938l4.198,4.188V22.708z"/>
</g>
<g>
	<path fill="#FFFFFF" d="M10.108,48c1.354,0,2.649,0.264,3.885,0.792c1.243,0.528,2.309,1.236,3.198,2.125
		c0.889,0.889,1.597,1.955,2.125,3.198c0.527,1.236,0.792,2.531,0.792,3.885s-0.264,2.649-0.792,3.885
		c-0.528,1.243-1.236,2.309-2.125,3.198c-0.889,0.889-1.955,1.597-3.198,2.125C12.757,67.736,11.462,68,10.108,68
		s-2.649-0.264-3.885-0.792c-1.244-0.528-2.31-1.236-3.198-2.125c-0.889-0.889-1.597-1.955-2.125-3.198
		C0.372,60.649,0.108,59.354,0.108,58s0.264-2.649,0.792-3.885c0.528-1.243,1.236-2.309,2.125-3.198
		c0.889-0.889,1.955-1.597,3.198-2.125C7.459,48.264,8.754,48,10.108,48z M10.108,49.333c-1.174,0-2.295,0.229-3.365,0.688
		c-1.062,0.458-1.983,1.077-2.76,1.854c-0.778,0.778-1.396,1.698-1.854,2.76C1.671,55.705,1.442,56.827,1.442,58
		c0,1.174,0.229,2.295,0.688,3.365c0.458,1.062,1.076,1.982,1.854,2.76c0.777,0.777,1.698,1.396,2.76,1.854
		c1.069,0.458,2.191,0.688,3.365,0.688c1.173,0,2.295-0.229,3.365-0.688c1.062-0.458,1.982-1.077,2.76-1.854
		c0.777-0.778,1.396-1.698,1.854-2.76c0.458-1.069,0.688-2.191,0.688-3.365c0-1.173-0.229-2.295-0.688-3.365
		c-0.458-1.062-1.077-1.982-1.854-2.76c-0.778-0.777-1.698-1.396-2.76-1.854C12.403,49.562,11.282,49.333,10.108,49.333z
		 M10.775,57.333h4v1.333h-4v4H9.442v-4h-4v-1.333h4v-4h1.333V57.333z"/>
</g>
<g>
	<path fill="#FFFFFF" d="M11.098,72c1.797,0,3.484,0.365,5.06,1.096c1.504,0.695,2.721,1.433,3.652,2.213
		c0.938,0.788,1.618,1.418,2.041,1.891l0.258,0.301c-0.967,1.182-2.277,2.292-3.932,3.33C15.871,82.277,13.504,83,11.076,83
		c-1.805,0-3.474-0.354-5.006-1.063c-1.533-0.709-2.768-1.461-3.706-2.256c-0.938-0.795-1.604-1.421-1.998-1.88L0.108,77.5
		c0.974-1.203,2.27-2.313,3.889-3.33C6.289,72.724,8.655,72,11.098,72z M11.108,73.375c-2.277,0-4.455,0.681-6.531,2.041
		c-0.96,0.63-1.819,1.325-2.578,2.084c1.962,1.962,4.161,3.237,6.596,3.824c0.816,0.201,1.644,0.301,2.481,0.301
		c-1.139,0-2.105-0.408-2.9-1.225s-1.192-1.79-1.192-2.922c0-1.146,0.397-2.116,1.192-2.911S9.948,73.375,11.108,73.375z
		 M13.031,75.545c-0.552-0.53-1.207-0.795-1.966-0.795c-0.759,0-1.396,0.265-1.912,0.795c-0.53,0.53-0.795,1.182-0.795,1.955
		s0.265,1.425,0.795,1.955c0.53,0.53,1.167,0.795,1.912,0.795c0.759,0,1.414-0.265,1.966-0.795c0.551-0.53,0.827-1.182,0.827-1.955
		S13.583,76.075,13.031,75.545z M11.108,73.375c1.117,0,2.084,0.401,2.9,1.203c0.816,0.802,1.225,1.769,1.225,2.9
		c0,1.132-0.408,2.105-1.225,2.922s-1.783,1.225-2.9,1.225c2.227,0,4.397-0.684,6.51-2.052c0.995-0.645,1.862-1.335,2.6-2.073
		c-1.962-1.948-4.183-3.223-6.66-3.824C12.741,73.476,11.925,73.375,11.108,73.375z"/>
</g>
<g>
	<path fill="#CC3333" d="M21.108,6.25l-5-6.25h10L21.108,6.25z M18.706,1.25l2.402,2.998l2.402-2.998H18.706z"/>
</g>
<g>
	<path fill="#3399CC" d="M22.108,14.5L16.483,19v-9L22.108,14.5z M17.608,16.662l2.698-2.162l-2.698-2.162V16.662z"/>
</g>
<g>
	<path fill="#006699" d="M38.293,148.002c0,10.51-8.531,18.998-18.998,18.998c-10.51,0-18.998-8.487-18.998-18.998
		c0-10.466,8.487-18.998,18.998-18.998C29.762,129.005,38.293,137.536,38.293,148.002z M20.879,141.45
		c0-1.319,0.264-2.155,1.935-2.155h2.595l0.22-4.486c0,0-1.319-0.264-3.606-0.264c-4.662,0-6.685,2.814-6.685,5.98
		c0,2.067,0,4.31,0,4.31h-3.166v4.75h3.166v11.873h5.541v-11.873h4.442l0.308-4.706h-4.75V141.45z"/>
</g>
<g>
	<path fill="#006699" d="M38.293,105.998c0,10.51-8.487,18.998-18.998,18.998s-18.998-8.487-18.998-18.998S8.786,87,19.296,87
		S38.293,95.487,38.293,105.998z M33.544,99.049c-0.967,0.396-2.023,0.704-3.122,0.835c1.143-0.66,1.935-1.715,2.331-2.99
		c-1.055,0.616-2.155,1.056-3.386,1.319c-0.967-1.056-2.375-1.715-3.914-1.715c-2.99,0-5.365,2.418-5.365,5.409
		c0,0.396,0.044,0.835,0.132,1.231c-4.485-0.22-8.487-2.375-11.17-5.673c-0.439,0.835-0.704,1.759-0.704,2.727
		c0,1.891,0.924,3.518,2.375,4.485c-0.879,0-1.715-0.264-2.419-0.66v0.044c0,2.639,1.847,4.793,4.31,5.321
		c-0.44,0.132-0.924,0.176-1.407,0.176c-0.352,0-0.704-0.044-1.012-0.088c0.66,2.155,2.683,3.606,5.013,3.65
		c-1.847,1.451-4.134,2.463-6.684,2.463c-0.44,0-0.88-0.044-1.275-0.088c2.375,1.54,5.233,2.375,8.268,2.375
		c9.938,0,15.347-8.224,15.347-15.348c0-0.22,0-0.484,0-0.704C31.917,101.072,32.796,100.105,33.544,99.049z"/>
</g>
<g>
	<path fill="#006699" d="M38.104,189.998c0,10.51-8.487,18.998-18.998,18.998s-18.998-8.488-18.998-18.998S8.596,171,19.106,171
		S38.104,179.488,38.104,189.998z M14.356,180.895c-0.044-1.582-1.231-2.77-3.166-2.77c-1.891,0-3.167,1.188-3.167,2.77
		c0,1.539,1.231,2.771,3.123,2.771h0.044C13.125,183.666,14.356,182.434,14.356,180.895z M13.565,186.04h-4.75v13.456h4.75V186.04z
		 M30.979,192.373c0-4.354-2.155-7.125-5.541-7.125c-1.935,0-3.342,1.145-3.958,2.859l-0.176-2.067h-4.706
		c0.044,0.528,0.132,3.167,0.132,3.167v10.289h4.749v-7.123c0-1.936,0.88-3.166,2.331-3.166s2.418,0.747,2.418,3.166v7.123h4.75
		V192.373z"/>
</g>
<g>
	<path fill="#4C4C4E" d="M4.409,213.57c0.889-0.383,1.825-0.574,2.81-0.574s1.921,0.191,2.81,0.574s1.654,0.896,2.297,1.538
		s1.155,1.408,1.538,2.297s0.574,1.825,0.574,2.81c0,1.743-0.558,3.281-1.672,4.614l6.07,6.081c0.13,0.123,0.195,0.276,0.195,0.461
		c0,0.191-0.062,0.349-0.185,0.472s-0.28,0.185-0.472,0.185c-0.185,0-0.338-0.065-0.461-0.195l-6.081-6.07
		c-1.333,1.115-2.871,1.672-4.614,1.672c-0.984,0-1.921-0.191-2.81-0.574s-1.654-0.896-2.297-1.538s-1.155-1.408-1.538-2.297
		S0,221.199,0,220.215s0.191-1.921,0.574-2.81s0.896-1.654,1.538-2.297S3.521,213.953,4.409,213.57z M7.219,214.309
		c-0.807,0-1.572,0.157-2.297,0.472s-1.354,0.731-1.887,1.251c-0.533,0.533-0.95,1.162-1.251,1.887
		c-0.314,0.725-0.472,1.49-0.472,2.297s0.157,1.572,0.472,2.297s0.731,1.354,1.251,1.887c0.533,0.533,1.162,0.95,1.887,1.251
		c0.725,0.314,1.49,0.472,2.297,0.472s1.572-0.157,2.297-0.472s1.354-0.731,1.887-1.251c0.533-0.533,0.95-1.162,1.251-1.887
		c0.314-0.725,0.472-1.49,0.472-2.297s-0.157-1.572-0.472-2.297s-0.731-1.354-1.251-1.887c-0.533-0.533-1.162-0.95-1.887-1.251
		C8.791,214.466,8.025,214.309,7.219,214.309z"/>
</g>
<g>
	<path fill="#838687" d="M18.891,254.777H0.141v-18.75h18.75V254.777z M15.141,237.277v2.5h-1.25v-2.5h-8.75v2.5h-1.25v-2.5h-2.5
		v16.25h16.25v-16.25H15.141z M6.391,246.027h-3.75v-3.75h3.75V246.027z M6.391,251.027h-3.75v-3.75h3.75V251.027z M11.391,246.027
		h-3.75v-3.75h3.75V246.027z M11.391,251.027h-3.75v-3.75h3.75V251.027z M16.391,246.027h-3.75v-3.75h3.75V246.027z M16.391,251.027
		h-3.75v-3.75h3.75V251.027z"/>
</g>
</svg>
